<mxfile modified="2021-08-26T06:36:59.313Z" host="app.diagrams.net" agent="5.0 (Macintosh; Intel Mac OS X 10_15_7) AppleWebKit/537.36 (KHTML, like Gecko) Chrome/92.0.4515.159 Safari/537.36" etag="UY5ks_MyB10dGyhfUgRY" version="14.9.8" type="github">
  <diagram id="Ht1M8jgEwFfnCIfOTk4-" name="Page-1">
    <mxGraphModel dx="1426" dy="1564" grid="1" gridSize="10" guides="1" tooltips="1" connect="1" arrows="1" fold="1" page="1" pageScale="1" pageWidth="1169" pageHeight="827" math="0" shadow="0">
      <root>
        <mxCell id="0" />
        <mxCell id="1" parent="0" />
        <mxCell id="cE-dCBIDV0V2f3Bw-jzf-18" value="" style="group" vertex="1" connectable="0" parent="1">
          <mxGeometry x="120" y="190" width="730" height="395" as="geometry" />
        </mxCell>
        <mxCell id="cE-dCBIDV0V2f3Bw-jzf-44" value="" style="endArrow=none;dashed=1;html=1;strokeWidth=2;dashPattern=1 4;" edge="1" parent="cE-dCBIDV0V2f3Bw-jzf-18">
          <mxGeometry width="50" height="50" relative="1" as="geometry">
            <mxPoint x="450" y="213" as="sourcePoint" />
            <mxPoint x="510" y="213" as="targetPoint" />
          </mxGeometry>
        </mxCell>
        <mxCell id="cE-dCBIDV0V2f3Bw-jzf-94" value="" style="group" vertex="1" connectable="0" parent="cE-dCBIDV0V2f3Bw-jzf-18">
          <mxGeometry x="-20" y="-10" width="730" height="395" as="geometry" />
        </mxCell>
        <mxCell id="cE-dCBIDV0V2f3Bw-jzf-19" value="" style="rounded=0;whiteSpace=wrap;html=1;fillColor=none;" vertex="1" parent="cE-dCBIDV0V2f3Bw-jzf-94">
          <mxGeometry width="730" height="395" as="geometry" />
        </mxCell>
        <mxCell id="cE-dCBIDV0V2f3Bw-jzf-20" value="tag: 2005" style="rounded=0;whiteSpace=wrap;html=1;" vertex="1" parent="cE-dCBIDV0V2f3Bw-jzf-94">
          <mxGeometry x="120" y="65" width="120" height="295" as="geometry" />
        </mxCell>
        <mxCell id="cE-dCBIDV0V2f3Bw-jzf-21" value="tag: 2006" style="rounded=0;whiteSpace=wrap;html=1;" vertex="1" parent="cE-dCBIDV0V2f3Bw-jzf-94">
          <mxGeometry x="280" y="65" width="120" height="295" as="geometry" />
        </mxCell>
        <mxCell id="cE-dCBIDV0V2f3Bw-jzf-22" value="tag: 2021" style="rounded=0;whiteSpace=wrap;html=1;" vertex="1" parent="cE-dCBIDV0V2f3Bw-jzf-94">
          <mxGeometry x="570" y="65" width="120" height="295" as="geometry" />
        </mxCell>
        <mxCell id="cE-dCBIDV0V2f3Bw-jzf-29" value="&lt;font style=&quot;font-size: 15px&quot;&gt;2005&lt;/font&gt;" style="text;html=1;strokeColor=none;fillColor=none;align=center;verticalAlign=middle;whiteSpace=wrap;rounded=0;" vertex="1" parent="cE-dCBIDV0V2f3Bw-jzf-94">
          <mxGeometry x="160" y="25" width="40" height="20" as="geometry" />
        </mxCell>
        <mxCell id="cE-dCBIDV0V2f3Bw-jzf-30" value="&lt;font style=&quot;font-size: 15px&quot;&gt;2006&lt;/font&gt;" style="text;html=1;strokeColor=none;fillColor=none;align=center;verticalAlign=middle;whiteSpace=wrap;rounded=0;" vertex="1" parent="cE-dCBIDV0V2f3Bw-jzf-94">
          <mxGeometry x="320" y="25" width="40" height="20" as="geometry" />
        </mxCell>
        <mxCell id="cE-dCBIDV0V2f3Bw-jzf-31" value="&lt;font style=&quot;font-size: 15px&quot;&gt;2021&lt;/font&gt;" style="text;html=1;strokeColor=none;fillColor=none;align=center;verticalAlign=middle;whiteSpace=wrap;rounded=0;" vertex="1" parent="cE-dCBIDV0V2f3Bw-jzf-94">
          <mxGeometry x="610" y="25" width="40" height="20" as="geometry" />
        </mxCell>
        <mxCell id="cE-dCBIDV0V2f3Bw-jzf-32" value="&lt;font style=&quot;font-size: 15px&quot;&gt;600000&lt;/font&gt;" style="text;html=1;strokeColor=none;fillColor=none;align=center;verticalAlign=middle;whiteSpace=wrap;rounded=0;" vertex="1" parent="cE-dCBIDV0V2f3Bw-jzf-94">
          <mxGeometry x="10" y="85" width="100" height="20" as="geometry" />
        </mxCell>
        <mxCell id="cE-dCBIDV0V2f3Bw-jzf-33" value="&lt;font style=&quot;font-size: 15px&quot;&gt;600001&lt;/font&gt;" style="text;html=1;strokeColor=none;fillColor=none;align=center;verticalAlign=middle;whiteSpace=wrap;rounded=0;" vertex="1" parent="cE-dCBIDV0V2f3Bw-jzf-94">
          <mxGeometry x="10" y="175" width="100" height="20" as="geometry" />
        </mxCell>
        <mxCell id="cE-dCBIDV0V2f3Bw-jzf-34" value="&lt;font style=&quot;font-size: 15px&quot;&gt;689009&lt;/font&gt;" style="text;html=1;strokeColor=none;fillColor=none;align=center;verticalAlign=middle;whiteSpace=wrap;rounded=0;" vertex="1" parent="cE-dCBIDV0V2f3Bw-jzf-94">
          <mxGeometry x="10" y="315" width="100" height="20" as="geometry" />
        </mxCell>
        <mxCell id="cE-dCBIDV0V2f3Bw-jzf-67" value="&lt;font style=&quot;font-size: 16px&quot;&gt;Schema 2&lt;/font&gt;" style="text;html=1;fillColor=none;align=center;verticalAlign=middle;whiteSpace=wrap;rounded=0;strokeColor=#000000;" vertex="1" parent="cE-dCBIDV0V2f3Bw-jzf-94">
          <mxGeometry width="80" height="30" as="geometry" />
        </mxCell>
        <mxCell id="cE-dCBIDV0V2f3Bw-jzf-45" value="" style="group;strokeColor=#000000;" vertex="1" connectable="0" parent="1">
          <mxGeometry x="100" y="-260" width="730" height="395" as="geometry" />
        </mxCell>
        <mxCell id="cE-dCBIDV0V2f3Bw-jzf-93" value="" style="group" vertex="1" connectable="0" parent="cE-dCBIDV0V2f3Bw-jzf-45">
          <mxGeometry width="730" height="395" as="geometry" />
        </mxCell>
        <mxCell id="cE-dCBIDV0V2f3Bw-jzf-46" value="" style="rounded=0;whiteSpace=wrap;html=1;fillColor=none;" vertex="1" parent="cE-dCBIDV0V2f3Bw-jzf-93">
          <mxGeometry width="730" height="395" as="geometry" />
        </mxCell>
        <mxCell id="cE-dCBIDV0V2f3Bw-jzf-47" value="tag: 600000" style="rounded=0;whiteSpace=wrap;html=1;" vertex="1" parent="cE-dCBIDV0V2f3Bw-jzf-93">
          <mxGeometry x="120" y="65" width="570" height="60" as="geometry" />
        </mxCell>
        <mxCell id="cE-dCBIDV0V2f3Bw-jzf-50" value="&lt;span&gt;tag: 600001&lt;/span&gt;" style="rounded=0;whiteSpace=wrap;html=1;" vertex="1" parent="cE-dCBIDV0V2f3Bw-jzf-93">
          <mxGeometry x="120" y="155" width="570" height="60" as="geometry" />
        </mxCell>
        <mxCell id="cE-dCBIDV0V2f3Bw-jzf-53" value="&lt;span&gt;tag: 689009&lt;/span&gt;" style="rounded=0;whiteSpace=wrap;html=1;" vertex="1" parent="cE-dCBIDV0V2f3Bw-jzf-93">
          <mxGeometry x="120" y="295" width="570" height="60" as="geometry" />
        </mxCell>
        <mxCell id="cE-dCBIDV0V2f3Bw-jzf-56" value="&lt;font style=&quot;font-size: 15px&quot;&gt;2005&lt;/font&gt;" style="text;html=1;strokeColor=none;fillColor=none;align=center;verticalAlign=middle;whiteSpace=wrap;rounded=0;" vertex="1" parent="cE-dCBIDV0V2f3Bw-jzf-93">
          <mxGeometry x="160" y="25" width="40" height="20" as="geometry" />
        </mxCell>
        <mxCell id="cE-dCBIDV0V2f3Bw-jzf-57" value="&lt;font style=&quot;font-size: 15px&quot;&gt;2006&lt;/font&gt;" style="text;html=1;strokeColor=none;fillColor=none;align=center;verticalAlign=middle;whiteSpace=wrap;rounded=0;" vertex="1" parent="cE-dCBIDV0V2f3Bw-jzf-93">
          <mxGeometry x="320" y="25" width="40" height="20" as="geometry" />
        </mxCell>
        <mxCell id="cE-dCBIDV0V2f3Bw-jzf-58" value="&lt;font style=&quot;font-size: 15px&quot;&gt;2021&lt;/font&gt;" style="text;html=1;strokeColor=none;fillColor=none;align=center;verticalAlign=middle;whiteSpace=wrap;rounded=0;" vertex="1" parent="cE-dCBIDV0V2f3Bw-jzf-93">
          <mxGeometry x="610" y="25" width="40" height="20" as="geometry" />
        </mxCell>
        <mxCell id="cE-dCBIDV0V2f3Bw-jzf-59" value="&lt;font style=&quot;font-size: 15px&quot;&gt;600000&lt;/font&gt;" style="text;html=1;strokeColor=none;fillColor=none;align=center;verticalAlign=middle;whiteSpace=wrap;rounded=0;" vertex="1" parent="cE-dCBIDV0V2f3Bw-jzf-93">
          <mxGeometry x="10" y="85" width="100" height="20" as="geometry" />
        </mxCell>
        <mxCell id="cE-dCBIDV0V2f3Bw-jzf-60" value="&lt;font style=&quot;font-size: 15px&quot;&gt;600001&lt;/font&gt;" style="text;html=1;strokeColor=none;fillColor=none;align=center;verticalAlign=middle;whiteSpace=wrap;rounded=0;" vertex="1" parent="cE-dCBIDV0V2f3Bw-jzf-93">
          <mxGeometry x="10" y="175" width="100" height="20" as="geometry" />
        </mxCell>
        <mxCell id="cE-dCBIDV0V2f3Bw-jzf-61" value="&lt;font style=&quot;font-size: 15px&quot;&gt;689009&lt;/font&gt;" style="text;html=1;strokeColor=none;fillColor=none;align=center;verticalAlign=middle;whiteSpace=wrap;rounded=0;" vertex="1" parent="cE-dCBIDV0V2f3Bw-jzf-93">
          <mxGeometry x="10" y="315" width="100" height="20" as="geometry" />
        </mxCell>
        <mxCell id="cE-dCBIDV0V2f3Bw-jzf-62" value="" style="endArrow=none;dashed=1;html=1;strokeWidth=2;dashPattern=1 4;" edge="1" parent="cE-dCBIDV0V2f3Bw-jzf-93">
          <mxGeometry width="50" height="50" relative="1" as="geometry">
            <mxPoint x="405" y="240" as="sourcePoint" />
            <mxPoint x="405" y="270" as="targetPoint" />
          </mxGeometry>
        </mxCell>
        <mxCell id="cE-dCBIDV0V2f3Bw-jzf-68" value="&lt;font style=&quot;font-size: 16px&quot;&gt;Schema 1&lt;/font&gt;" style="text;html=1;fillColor=none;align=center;verticalAlign=middle;whiteSpace=wrap;rounded=0;strokeColor=#000000;" vertex="1" parent="cE-dCBIDV0V2f3Bw-jzf-93">
          <mxGeometry width="80" height="30" as="geometry" />
        </mxCell>
        <mxCell id="cE-dCBIDV0V2f3Bw-jzf-92" value="" style="group" vertex="1" connectable="0" parent="1">
          <mxGeometry x="100" y="620" width="730" height="395" as="geometry" />
        </mxCell>
        <mxCell id="cE-dCBIDV0V2f3Bw-jzf-17" value="" style="group" vertex="1" connectable="0" parent="cE-dCBIDV0V2f3Bw-jzf-92">
          <mxGeometry width="730" height="395" as="geometry" />
        </mxCell>
        <mxCell id="cE-dCBIDV0V2f3Bw-jzf-91" value="" style="group" vertex="1" connectable="0" parent="cE-dCBIDV0V2f3Bw-jzf-17">
          <mxGeometry width="730" height="395" as="geometry" />
        </mxCell>
        <mxCell id="cE-dCBIDV0V2f3Bw-jzf-10" value="" style="rounded=0;whiteSpace=wrap;html=1;fillColor=none;" vertex="1" parent="cE-dCBIDV0V2f3Bw-jzf-91">
          <mxGeometry width="730" height="395" as="geometry" />
        </mxCell>
        <mxCell id="cE-dCBIDV0V2f3Bw-jzf-1" value="tag:(2005, 600000)" style="rounded=0;whiteSpace=wrap;html=1;" vertex="1" parent="cE-dCBIDV0V2f3Bw-jzf-91">
          <mxGeometry x="120" y="65" width="120" height="60" as="geometry" />
        </mxCell>
        <mxCell id="cE-dCBIDV0V2f3Bw-jzf-2" value="&lt;span&gt;tag:(2005, 600000)&lt;/span&gt;" style="rounded=0;whiteSpace=wrap;html=1;" vertex="1" parent="cE-dCBIDV0V2f3Bw-jzf-91">
          <mxGeometry x="280" y="65" width="120" height="60" as="geometry" />
        </mxCell>
        <mxCell id="cE-dCBIDV0V2f3Bw-jzf-3" value="&lt;span&gt;tag:(2021, 600000)&lt;/span&gt;" style="rounded=0;whiteSpace=wrap;html=1;" vertex="1" parent="cE-dCBIDV0V2f3Bw-jzf-91">
          <mxGeometry x="570" y="65" width="120" height="60" as="geometry" />
        </mxCell>
        <mxCell id="cE-dCBIDV0V2f3Bw-jzf-4" value="&lt;span&gt;tag:(2005, 600001)&lt;/span&gt;" style="rounded=0;whiteSpace=wrap;html=1;" vertex="1" parent="cE-dCBIDV0V2f3Bw-jzf-91">
          <mxGeometry x="120" y="155" width="120" height="60" as="geometry" />
        </mxCell>
        <mxCell id="cE-dCBIDV0V2f3Bw-jzf-5" value="&lt;span&gt;tag:(2006, 600001)&lt;/span&gt;" style="rounded=0;whiteSpace=wrap;html=1;" vertex="1" parent="cE-dCBIDV0V2f3Bw-jzf-91">
          <mxGeometry x="280" y="155" width="120" height="60" as="geometry" />
        </mxCell>
        <mxCell id="cE-dCBIDV0V2f3Bw-jzf-6" value="&lt;span&gt;tag:(2021, 600001)&lt;/span&gt;" style="rounded=0;whiteSpace=wrap;html=1;" vertex="1" parent="cE-dCBIDV0V2f3Bw-jzf-91">
          <mxGeometry x="570" y="155" width="120" height="60" as="geometry" />
        </mxCell>
        <mxCell id="cE-dCBIDV0V2f3Bw-jzf-7" value="&lt;span&gt;tag:(2005, 689009)&lt;/span&gt;" style="rounded=0;whiteSpace=wrap;html=1;" vertex="1" parent="cE-dCBIDV0V2f3Bw-jzf-91">
          <mxGeometry x="120" y="295" width="120" height="60" as="geometry" />
        </mxCell>
        <mxCell id="cE-dCBIDV0V2f3Bw-jzf-8" value="&lt;span&gt;tag:(2006, 689009)&lt;/span&gt;" style="rounded=0;whiteSpace=wrap;html=1;" vertex="1" parent="cE-dCBIDV0V2f3Bw-jzf-91">
          <mxGeometry x="280" y="295" width="120" height="60" as="geometry" />
        </mxCell>
        <mxCell id="cE-dCBIDV0V2f3Bw-jzf-9" value="&lt;span&gt;tag:(2021,&amp;nbsp;&lt;/span&gt;689009&lt;span&gt;)&lt;/span&gt;" style="rounded=0;whiteSpace=wrap;html=1;" vertex="1" parent="cE-dCBIDV0V2f3Bw-jzf-91">
          <mxGeometry x="570" y="295" width="120" height="60" as="geometry" />
        </mxCell>
        <mxCell id="cE-dCBIDV0V2f3Bw-jzf-11" value="&lt;font style=&quot;font-size: 15px&quot;&gt;2005&lt;/font&gt;" style="text;html=1;strokeColor=none;fillColor=none;align=center;verticalAlign=middle;whiteSpace=wrap;rounded=0;" vertex="1" parent="cE-dCBIDV0V2f3Bw-jzf-91">
          <mxGeometry x="160" y="25" width="40" height="20" as="geometry" />
        </mxCell>
        <mxCell id="cE-dCBIDV0V2f3Bw-jzf-12" value="&lt;font style=&quot;font-size: 15px&quot;&gt;2006&lt;/font&gt;" style="text;html=1;strokeColor=none;fillColor=none;align=center;verticalAlign=middle;whiteSpace=wrap;rounded=0;" vertex="1" parent="cE-dCBIDV0V2f3Bw-jzf-91">
          <mxGeometry x="320" y="25" width="40" height="20" as="geometry" />
        </mxCell>
        <mxCell id="cE-dCBIDV0V2f3Bw-jzf-13" value="&lt;font style=&quot;font-size: 15px&quot;&gt;2021&lt;/font&gt;" style="text;html=1;strokeColor=none;fillColor=none;align=center;verticalAlign=middle;whiteSpace=wrap;rounded=0;" vertex="1" parent="cE-dCBIDV0V2f3Bw-jzf-91">
          <mxGeometry x="610" y="25" width="40" height="20" as="geometry" />
        </mxCell>
        <mxCell id="cE-dCBIDV0V2f3Bw-jzf-14" value="&lt;font style=&quot;font-size: 15px&quot;&gt;600000&lt;/font&gt;" style="text;html=1;strokeColor=none;fillColor=none;align=center;verticalAlign=middle;whiteSpace=wrap;rounded=0;" vertex="1" parent="cE-dCBIDV0V2f3Bw-jzf-91">
          <mxGeometry x="10" y="85" width="100" height="20" as="geometry" />
        </mxCell>
        <mxCell id="cE-dCBIDV0V2f3Bw-jzf-15" value="&lt;font style=&quot;font-size: 15px&quot;&gt;600001&lt;/font&gt;" style="text;html=1;strokeColor=none;fillColor=none;align=center;verticalAlign=middle;whiteSpace=wrap;rounded=0;" vertex="1" parent="cE-dCBIDV0V2f3Bw-jzf-91">
          <mxGeometry x="10" y="175" width="100" height="20" as="geometry" />
        </mxCell>
        <mxCell id="cE-dCBIDV0V2f3Bw-jzf-16" value="&lt;font style=&quot;font-size: 15px&quot;&gt;689009&lt;/font&gt;" style="text;html=1;strokeColor=none;fillColor=none;align=center;verticalAlign=middle;whiteSpace=wrap;rounded=0;" vertex="1" parent="cE-dCBIDV0V2f3Bw-jzf-91">
          <mxGeometry x="10" y="315" width="100" height="20" as="geometry" />
        </mxCell>
        <mxCell id="cE-dCBIDV0V2f3Bw-jzf-36" value="" style="endArrow=none;dashed=1;html=1;strokeWidth=2;dashPattern=1 4;" edge="1" parent="cE-dCBIDV0V2f3Bw-jzf-91">
          <mxGeometry width="50" height="50" relative="1" as="geometry">
            <mxPoint x="180" y="235" as="sourcePoint" />
            <mxPoint x="180" y="275" as="targetPoint" />
          </mxGeometry>
        </mxCell>
        <mxCell id="cE-dCBIDV0V2f3Bw-jzf-39" value="" style="endArrow=none;dashed=1;html=1;strokeWidth=2;dashPattern=1 4;" edge="1" parent="cE-dCBIDV0V2f3Bw-jzf-91">
          <mxGeometry width="50" height="50" relative="1" as="geometry">
            <mxPoint x="340" y="235" as="sourcePoint" />
            <mxPoint x="340" y="275" as="targetPoint" />
          </mxGeometry>
        </mxCell>
        <mxCell id="cE-dCBIDV0V2f3Bw-jzf-40" value="" style="endArrow=none;dashed=1;html=1;strokeWidth=2;dashPattern=1 4;" edge="1" parent="cE-dCBIDV0V2f3Bw-jzf-91">
          <mxGeometry width="50" height="50" relative="1" as="geometry">
            <mxPoint x="630" y="235" as="sourcePoint" />
            <mxPoint x="630" y="275" as="targetPoint" />
          </mxGeometry>
        </mxCell>
        <mxCell id="cE-dCBIDV0V2f3Bw-jzf-41" value="" style="endArrow=none;dashed=1;html=1;strokeWidth=2;dashPattern=1 4;" edge="1" parent="cE-dCBIDV0V2f3Bw-jzf-91">
          <mxGeometry width="50" height="50" relative="1" as="geometry">
            <mxPoint x="450" y="325" as="sourcePoint" />
            <mxPoint x="510" y="325" as="targetPoint" />
          </mxGeometry>
        </mxCell>
        <mxCell id="cE-dCBIDV0V2f3Bw-jzf-66" value="&lt;font style=&quot;font-size: 16px&quot;&gt;Schema 3&lt;/font&gt;" style="text;html=1;strokeColor=none;fillColor=none;align=center;verticalAlign=middle;whiteSpace=wrap;rounded=0;" vertex="1" parent="cE-dCBIDV0V2f3Bw-jzf-91">
          <mxGeometry width="80" height="30" as="geometry" />
        </mxCell>
        <mxCell id="cE-dCBIDV0V2f3Bw-jzf-42" value="" style="endArrow=none;dashed=1;html=1;strokeWidth=2;dashPattern=1 4;" edge="1" parent="cE-dCBIDV0V2f3Bw-jzf-92">
          <mxGeometry width="50" height="50" relative="1" as="geometry">
            <mxPoint x="448" y="187" as="sourcePoint" />
            <mxPoint x="508" y="187" as="targetPoint" />
          </mxGeometry>
        </mxCell>
        <mxCell id="cE-dCBIDV0V2f3Bw-jzf-43" value="" style="endArrow=none;dashed=1;html=1;strokeWidth=2;dashPattern=1 4;" edge="1" parent="cE-dCBIDV0V2f3Bw-jzf-92">
          <mxGeometry width="50" height="50" relative="1" as="geometry">
            <mxPoint x="444" y="96" as="sourcePoint" />
            <mxPoint x="504" y="96" as="targetPoint" />
          </mxGeometry>
        </mxCell>
      </root>
    </mxGraphModel>
  </diagram>
</mxfile>
